<svg width="124" height="145" viewBox="0 0 124 145" fill="none" xmlns="http://www.w3.org/2000/svg">
<g clip-path="url(#clip0_1_54)">
<path d="M2.5218 144.192C3.02056 144.192 3.50813 144.044 3.92283 143.766C4.33754 143.489 4.66077 143.095 4.85163 142.634C5.0425 142.173 5.09244 141.665 4.99514 141.176C4.89784 140.686 4.65766 140.237 4.30498 139.884C3.9523 139.531 3.50296 139.29 3.01378 139.193C2.5246 139.096 2.01755 139.146 1.55675 139.337C1.09595 139.528 0.702098 139.851 0.424999 140.266C0.147901 140.681 -1.32125e-07 141.169 -1.10308e-07 141.668C-8.10525e-08 142.337 0.265689 142.979 0.738617 143.453C1.21155 143.926 1.85298 144.192 2.5218 144.192Z" fill="#0077B6"/>
<path d="M2.5218 116.363C3.02056 116.363 3.50813 116.215 3.92283 115.937C4.33754 115.66 4.66077 115.266 4.85163 114.805C5.0425 114.344 5.09244 113.836 4.99514 113.347C4.89784 112.857 4.65766 112.407 4.30498 112.055C3.9523 111.702 3.50296 111.461 3.01378 111.364C2.5246 111.267 2.01755 111.317 1.55675 111.508C1.09595 111.699 0.702098 112.022 0.424999 112.437C0.147901 112.852 -1.32126e-07 113.34 -1.10309e-07 113.839C-8.10534e-08 114.508 0.265689 115.15 0.738617 115.623C1.21155 116.097 1.85298 116.363 2.5218 116.363Z" fill="#0077B6"/>
<path d="M2.5218 88.5337C3.02056 88.5337 3.50813 88.3857 3.92283 88.1084C4.33754 87.8311 4.66077 87.437 4.85163 86.9759C5.0425 86.5147 5.09244 86.0073 4.99514 85.5178C4.89784 85.0283 4.65766 84.5786 4.30498 84.2257C3.9523 83.8728 3.50296 83.6324 3.01378 83.5351C2.5246 83.4377 2.01755 83.4877 1.55675 83.6787C1.09595 83.8697 0.702098 84.1931 0.424999 84.6081C0.147901 85.0231 -1.32125e-07 85.511 -1.10308e-07 86.0101C-9.58221e-08 86.3415 0.0652281 86.6697 0.19196 86.9759C0.318693 87.282 0.504447 87.5602 0.738617 87.7946C0.972788 88.0289 1.25079 88.2148 1.55675 88.3416C1.86271 88.4684 2.19063 88.5337 2.5218 88.5337Z" fill="#0077B6"/>
<path d="M2.5218 60.7051C3.02056 60.7051 3.50813 60.5571 3.92283 60.2798C4.33754 60.0025 4.66077 59.6084 4.85163 59.1473C5.0425 58.6861 5.09244 58.1787 4.99514 57.6892C4.89784 57.1997 4.65766 56.75 4.30498 56.3971C3.9523 56.0442 3.50296 55.8038 3.01378 55.7065C2.5246 55.6091 2.01755 55.6591 1.55675 55.8501C1.09595 56.0411 0.702098 56.3645 0.424999 56.7795C0.147901 57.1945 -1.32125e-07 57.6824 -1.10308e-07 58.1815C-8.10524e-08 58.8508 0.265689 59.4927 0.738617 59.9659C1.21155 60.4392 1.85298 60.7051 2.5218 60.7051Z" fill="#0077B6"/>
<path d="M2.5218 32.8762C3.02056 32.8762 3.50813 32.7282 3.92283 32.4509C4.33754 32.1736 4.66077 31.7795 4.85163 31.3184C5.0425 30.8573 5.09244 30.3499 4.99514 29.8603C4.89784 29.3708 4.65766 28.9212 4.30498 28.5682C3.9523 28.2153 3.50296 27.975 3.01378 27.8776C2.5246 27.7802 2.01755 27.8302 1.55675 28.0212C1.09595 28.2122 0.702098 28.5356 0.424999 28.9506C0.147901 29.3656 -1.32125e-07 29.8536 -1.10308e-07 30.3527C-8.10526e-08 31.022 0.265689 31.6638 0.738617 32.1371C1.21155 32.6103 1.85298 32.8762 2.5218 32.8762Z" fill="#0077B6"/>
<path d="M2.5218 5.04736C3.02056 5.04736 3.50813 4.89936 3.92283 4.62207C4.33754 4.34478 4.66077 3.95065 4.85163 3.48953C5.0425 3.02841 5.09244 2.521 4.99514 2.03148C4.89784 1.54196 4.65766 1.09231 4.30498 0.739384C3.9523 0.386458 3.50296 0.146108 3.01378 0.0487355C2.5246 -0.0486365 2.01755 0.00133458 1.55675 0.192337C1.09595 0.383339 0.702098 0.706792 0.424999 1.12179C0.147901 1.53679 -1.32125e-07 2.02469 -1.10308e-07 2.52381C-8.10526e-08 3.1931 0.265689 3.83497 0.738617 4.30823C1.21155 4.78149 1.85298 5.04736 2.5218 5.04736Z" fill="#0077B6"/>
<path d="M26.2211 144.192C26.7193 144.189 27.2054 144.039 27.6183 143.76C28.0312 143.481 28.3522 143.086 28.541 142.624C28.7297 142.163 28.7777 141.656 28.6788 141.167C28.5799 140.679 28.3386 140.23 27.9854 139.879C27.6322 139.527 27.1828 139.288 26.694 139.192C26.2052 139.096 25.6989 139.147 25.2389 139.338C24.7789 139.529 24.3859 139.853 24.1094 140.268C23.8329 140.682 23.6854 141.17 23.6854 141.668C23.6854 142.001 23.751 142.33 23.8786 142.637C24.0063 142.944 24.1933 143.223 24.4289 143.457C24.6645 143.692 24.9442 143.878 25.2518 144.004C25.5593 144.13 25.8888 144.193 26.2211 144.192Z" fill="#0077B6"/>
<path d="M26.2211 116.363C26.7193 116.36 27.2054 116.209 27.6183 115.93C28.0312 115.651 28.3522 115.256 28.541 114.795C28.7297 114.334 28.7777 113.827 28.6788 113.338C28.5799 112.85 28.3386 112.401 27.9854 112.05C27.6322 111.698 27.1828 111.459 26.694 111.363C26.2052 111.267 25.6989 111.317 25.2389 111.509C24.7789 111.7 24.3859 112.024 24.1094 112.438C23.8329 112.853 23.6854 113.34 23.6854 113.839C23.6854 114.172 23.751 114.501 23.8786 114.808C24.0063 115.115 24.1933 115.394 24.4289 115.628C24.6645 115.863 24.9442 116.048 25.2518 116.174C25.5593 116.3 25.8888 116.364 26.2211 116.363Z" fill="#0077B6"/>
<path d="M26.2211 88.5339C26.7193 88.5311 27.2054 88.3808 27.6183 88.1018C28.0312 87.8229 28.3522 87.4278 28.541 86.9665C28.7297 86.5051 28.7777 85.9981 28.6788 85.5095C28.5799 85.0209 28.3386 84.5726 27.9854 84.2211C27.6322 83.8695 27.1828 83.6305 26.694 83.5343C26.2052 83.438 25.6989 83.4888 25.2389 83.6802C24.7789 83.8716 24.3859 84.1951 24.1094 84.6098C23.8329 85.0245 23.6854 85.5118 23.6854 86.0103C23.6854 86.3429 23.751 86.6722 23.8786 86.9793C24.0063 87.2864 24.1933 87.5652 24.4289 87.7997C24.6645 88.0342 24.9442 88.2198 25.2518 88.3458C25.5593 88.4718 25.8888 88.5357 26.2211 88.5339Z" fill="#0077B6"/>
<path d="M26.2211 60.705C26.7193 60.7023 27.2054 60.5519 27.6183 60.273C28.0312 59.994 28.3522 59.599 28.541 59.1376C28.7297 58.6762 28.7777 58.1693 28.6788 57.6807C28.5799 57.1921 28.3386 56.7437 27.9854 56.3922C27.6322 56.0407 27.1828 55.8017 26.694 55.7055C26.2052 55.6092 25.6989 55.66 25.2389 55.8514C24.7789 56.0428 24.3859 56.3663 24.1094 56.7809C23.8329 57.1956 23.6854 57.683 23.6854 58.1815C23.6854 58.5141 23.751 58.8434 23.8786 59.1504C24.0063 59.4575 24.1933 59.7363 24.4289 59.9709C24.6645 60.2054 24.9442 60.391 25.2518 60.517C25.5593 60.643 25.8888 60.7069 26.2211 60.705Z" fill="#0077B6"/>
<path d="M26.2211 32.8762C26.7193 32.8734 27.2054 32.7231 27.6183 32.4441C28.0312 32.1652 28.3522 31.7701 28.541 31.3087C28.7297 30.8474 28.7777 30.3404 28.6788 29.8518C28.5799 29.3632 28.3386 28.9149 27.9854 28.5633C27.6322 28.2118 27.1828 27.9728 26.694 27.8766C26.2052 27.7803 25.6989 27.8311 25.2389 28.0225C24.7789 28.2139 24.3859 28.5374 24.1094 28.9521C23.8329 29.3667 23.6854 29.8541 23.6854 30.3526C23.6854 30.6852 23.751 31.0145 23.8786 31.3216C24.0063 31.6287 24.1933 31.9075 24.4289 32.142C24.6645 32.3765 24.9442 32.5621 25.2518 32.6881C25.5593 32.8141 25.8888 32.878 26.2211 32.8762Z" fill="#0077B6"/>
<path d="M26.2211 5.04732C26.7193 5.04457 27.2054 4.89423 27.6183 4.61527C28.0312 4.3363 28.3522 3.94123 28.541 3.47988C28.7297 3.01852 28.7777 2.51155 28.6788 2.02295C28.5799 1.53435 28.3386 1.08601 27.9854 0.734478C27.6322 0.382945 27.1828 0.143992 26.694 0.0477446C26.2052 -0.0485026 25.6989 0.00226012 25.2389 0.193665C24.7789 0.38507 24.3859 0.708533 24.1094 1.12322C23.8329 1.53791 23.6854 2.02525 23.6854 2.52377C23.6854 2.85635 23.751 3.18564 23.8786 3.49273C24.0063 3.79981 24.1933 4.07863 24.4289 4.31315C24.6645 4.54767 24.9442 4.73326 25.2518 4.85926C25.5593 4.98526 25.8888 5.04916 26.2211 5.04732Z" fill="#0077B6"/>
<path d="M49.9065 144.192C50.4047 144.189 50.8909 144.039 51.3037 143.76C51.7166 143.481 52.0377 143.086 52.2264 142.624C52.4151 142.163 52.4631 141.656 52.3642 141.167C52.2653 140.679 52.0241 140.23 51.6708 139.879C51.3176 139.527 50.8683 139.288 50.3795 139.192C49.8907 139.096 49.3843 139.147 48.9243 139.338C48.4644 139.529 48.0713 139.853 47.7948 140.268C47.5184 140.682 47.3708 141.17 47.3708 141.668C47.3708 142.001 47.4365 142.33 47.5641 142.637C47.6917 142.944 47.8787 143.223 48.1143 143.457C48.35 143.692 48.6296 143.878 48.9372 144.004C49.2448 144.13 49.5742 144.193 49.9065 144.192Z" fill="#0077B6"/>
<path d="M49.9065 116.363C50.4047 116.36 50.8909 116.209 51.3037 115.93C51.7166 115.651 52.0377 115.256 52.2264 114.795C52.4151 114.334 52.4631 113.827 52.3642 113.338C52.2653 112.85 52.0241 112.401 51.6708 112.05C51.3176 111.698 50.8683 111.459 50.3795 111.363C49.8907 111.267 49.3843 111.317 48.9243 111.509C48.4644 111.7 48.0713 112.024 47.7948 112.438C47.5184 112.853 47.3708 113.34 47.3708 113.839C47.3708 114.172 47.4365 114.501 47.5641 114.808C47.6917 115.115 47.8787 115.394 48.1143 115.628C48.35 115.863 48.6296 116.048 48.9372 116.174C49.2448 116.3 49.5742 116.364 49.9065 116.363Z" fill="#0077B6"/>
<path d="M49.9065 88.5339C50.4047 88.5311 50.8909 88.3808 51.3037 88.1018C51.7166 87.8229 52.0377 87.4278 52.2264 86.9665C52.4151 86.5051 52.4631 85.9981 52.3642 85.5095C52.2653 85.0209 52.0241 84.5726 51.6708 84.2211C51.3176 83.8695 50.8683 83.6305 50.3795 83.5343C49.8907 83.438 49.3843 83.4888 48.9243 83.6802C48.4644 83.8716 48.0713 84.1951 47.7948 84.6098C47.5184 85.0245 47.3708 85.5118 47.3708 86.0103C47.3708 86.3429 47.4365 86.6722 47.5641 86.9793C47.6917 87.2864 47.8787 87.5652 48.1143 87.7997C48.35 88.0342 48.6296 88.2198 48.9372 88.3458C49.2448 88.4718 49.5742 88.5357 49.9065 88.5339Z" fill="#0077B6"/>
<path d="M49.9065 60.705C50.4047 60.7023 50.8909 60.5519 51.3037 60.273C51.7166 59.994 52.0377 59.599 52.2264 59.1376C52.4151 58.6762 52.4631 58.1693 52.3642 57.6807C52.2653 57.1921 52.0241 56.7437 51.6708 56.3922C51.3176 56.0407 50.8683 55.8017 50.3795 55.7055C49.8907 55.6092 49.3843 55.66 48.9243 55.8514C48.4644 56.0428 48.0713 56.3663 47.7948 56.7809C47.5184 57.1956 47.3708 57.683 47.3708 58.1815C47.3708 58.5141 47.4365 58.8434 47.5641 59.1504C47.6917 59.4575 47.8787 59.7363 48.1143 59.9709C48.35 60.2054 48.6296 60.391 48.9372 60.517C49.2448 60.643 49.5742 60.7069 49.9065 60.705Z" fill="#0077B6"/>
<path d="M49.9065 32.8762C50.4047 32.8734 50.8909 32.7231 51.3037 32.4441C51.7166 32.1652 52.0377 31.7701 52.2264 31.3087C52.4151 30.8474 52.4631 30.3404 52.3642 29.8518C52.2653 29.3632 52.0241 28.9149 51.6708 28.5633C51.3176 28.2118 50.8683 27.9728 50.3795 27.8766C49.8907 27.7803 49.3843 27.8311 48.9243 28.0225C48.4644 28.2139 48.0713 28.5374 47.7948 28.9521C47.5184 29.3667 47.3708 29.8541 47.3708 30.3526C47.3708 30.6852 47.4365 31.0145 47.5641 31.3216C47.6917 31.6287 47.8787 31.9075 48.1143 32.142C48.35 32.3765 48.6296 32.5621 48.9372 32.6881C49.2448 32.8141 49.5742 32.878 49.9065 32.8762Z" fill="#0077B6"/>
<path d="M49.9065 5.04732C50.4047 5.04457 50.8909 4.89423 51.3037 4.61527C51.7166 4.3363 52.0377 3.94123 52.2264 3.47988C52.4151 3.01852 52.4631 2.51155 52.3642 2.02295C52.2653 1.53435 52.0241 1.08601 51.6708 0.734478C51.3176 0.382945 50.8683 0.143992 50.3795 0.0477446C49.8907 -0.0485026 49.3843 0.00226012 48.9243 0.193665C48.4644 0.38507 48.0713 0.708533 47.7948 1.12322C47.5184 1.53791 47.3708 2.02525 47.3708 2.52377C47.3708 2.85635 47.4365 3.18564 47.5641 3.49273C47.6917 3.79981 47.8787 4.07863 48.1143 4.31315C48.35 4.54767 48.6296 4.73326 48.9372 4.85926C49.2448 4.98526 49.5742 5.04916 49.9065 5.04732Z" fill="#0077B6"/>
<path d="M73.6058 144.191C74.1034 144.186 74.5882 144.033 74.9992 143.753C75.4102 143.472 75.7291 143.076 75.9157 142.614C76.1023 142.153 76.1483 141.646 76.0478 141.159C75.9474 140.671 75.7051 140.224 75.3513 139.874C74.9975 139.524 74.5482 139.286 74.0598 139.191C73.5714 139.096 73.0658 139.147 72.6066 139.339C72.1474 139.531 71.7552 139.854 71.4793 140.269C71.2034 140.683 71.0562 141.17 71.0562 141.668C71.0561 142.002 71.1223 142.332 71.2507 142.64C71.3792 142.948 71.5675 143.228 71.8046 143.462C72.0417 143.697 72.323 143.882 72.6322 144.007C72.9414 144.133 73.2723 144.195 73.6058 144.191Z" fill="#0077B6"/>
<path d="M73.6058 116.363C74.1034 116.357 74.5882 116.205 74.9992 115.924C75.4102 115.643 75.7291 115.247 75.9157 114.786C76.1023 114.324 76.1483 113.818 76.0478 113.33C75.9474 112.842 75.7051 112.395 75.3513 112.045C74.9975 111.695 74.5482 111.458 74.0598 111.362C73.5714 111.267 73.0658 111.319 72.6066 111.511C72.1474 111.702 71.7552 112.026 71.4793 112.44C71.2034 112.855 71.0562 113.341 71.0562 113.839C71.0561 114.173 71.1223 114.504 71.2507 114.812C71.3792 115.12 71.5675 115.399 71.8046 115.634C72.0417 115.868 72.323 116.054 72.6322 116.179C72.9414 116.304 73.2723 116.367 73.6058 116.363Z" fill="#0077B6"/>
<path d="M73.6058 88.534C74.1034 88.5285 74.5882 88.3759 74.9992 88.0952C75.4102 87.8146 75.7291 87.4186 75.9157 86.957C76.1023 86.4955 76.1483 85.9889 76.0478 85.5013C75.9474 85.0136 75.7051 84.5666 75.3513 84.2164C74.9975 83.8663 74.5482 83.6287 74.0598 83.5336C73.5714 83.4384 73.0658 83.49 72.6066 83.6818C72.1474 83.8736 71.7552 84.197 71.4793 84.6114C71.2034 85.0258 71.0562 85.5126 71.0562 86.0105C71.0561 86.3442 71.1223 86.6747 71.2507 86.9827C71.3792 87.2907 71.5675 87.5701 71.8046 87.8048C72.0417 88.0395 72.323 88.2248 72.6322 88.35C72.9414 88.4752 73.2723 88.5377 73.6058 88.534Z" fill="#0077B6"/>
<path d="M73.6058 60.7049C74.1034 60.6994 74.5882 60.5468 74.9992 60.2661C75.4102 59.9855 75.7291 59.5895 75.9157 59.1279C76.1023 58.6664 76.1483 58.1599 76.0478 57.6722C75.9474 57.1845 75.7051 56.7375 75.3513 56.3873C74.9975 56.0372 74.5482 55.7996 74.0598 55.7045C73.5714 55.6093 73.0658 55.6609 72.6066 55.8527C72.1474 56.0445 71.7552 56.3679 71.4793 56.7823C71.2034 57.1967 71.0562 57.6835 71.0562 58.1814C71.0561 58.5151 71.1223 58.8456 71.2507 59.1536C71.3792 59.4616 71.5675 59.741 71.8046 59.9757C72.0417 60.2104 72.323 60.3957 72.6322 60.5209C72.9414 60.6461 73.2723 60.7086 73.6058 60.7049Z" fill="#0077B6"/>
<path d="M73.6058 32.8761C74.1034 32.8706 74.5882 32.7179 74.9992 32.4373C75.4102 32.1567 75.7291 31.7606 75.9157 31.2991C76.1023 30.8375 76.1483 30.331 76.0478 29.8433C75.9474 29.3556 75.7051 28.9086 75.3513 28.5584C74.9975 28.2083 74.5482 27.9707 74.0598 27.8756C73.5714 27.7805 73.0658 27.832 72.6066 28.0238C72.1474 28.2156 71.7552 28.5391 71.4793 28.9534C71.2034 29.3678 71.0562 29.8546 71.0562 30.3525C71.0561 30.6863 71.1223 31.0167 71.2507 31.3247C71.3792 31.6327 71.5675 31.9122 71.8046 32.1469C72.0417 32.3816 72.323 32.5669 72.6322 32.692C72.9414 32.8172 73.2723 32.8798 73.6058 32.8761Z" fill="#0077B6"/>
<path d="M73.6058 5.04721C74.1034 5.04171 74.5882 4.88904 74.9992 4.60843C75.4102 4.32781 75.7291 3.93179 75.9157 3.47021C76.1023 3.00863 76.1483 2.50213 76.0478 2.01445C75.9474 1.52678 75.7051 1.07976 75.3513 0.729616C74.9975 0.379475 74.5482 0.141867 74.0598 0.0467337C73.5714 -0.0483996 73.0658 0.00317851 72.6066 0.194973C72.1474 0.386767 71.7552 0.710224 71.4793 1.12459C71.2034 1.53897 71.0562 2.02574 71.0562 2.52365C71.0561 2.85741 71.1223 3.18786 71.2507 3.49587C71.3792 3.80387 71.5675 4.08331 71.8046 4.31801C72.0417 4.55271 72.323 4.73802 72.6322 4.86319C72.9414 4.98836 73.2723 5.0509 73.6058 5.04721Z" fill="#0077B6"/>
<path d="M97.3052 144.192C97.8021 144.183 98.2855 144.028 98.6946 143.746C99.1038 143.464 99.4205 143.067 99.605 142.605C99.7895 142.143 99.8335 141.637 99.7315 141.151C99.6295 140.664 99.3861 140.218 99.0318 139.869C98.6775 139.521 98.2282 139.284 97.7402 139.19C97.2522 139.096 96.7473 139.149 96.2889 139.341C95.8305 139.533 95.4391 139.856 95.1638 140.27C94.8885 140.684 94.7416 141.171 94.7416 141.668C94.7415 142.003 94.8081 142.335 94.9375 142.643C95.0668 142.952 95.2563 143.232 95.4949 143.467C95.7335 143.702 96.0165 143.887 96.3273 144.012C96.6381 144.136 96.9705 144.197 97.3052 144.192Z" fill="#0077B6"/>
<path d="M97.3052 116.363C97.8021 116.354 98.2855 116.199 98.6946 115.917C99.1038 115.635 99.4205 115.238 99.605 114.776C99.7895 114.314 99.8335 113.808 99.7315 113.322C99.6295 112.835 99.3861 112.389 99.0318 112.04C98.6775 111.692 98.2282 111.455 97.7402 111.361C97.2522 111.267 96.7473 111.32 96.2889 111.512C95.8305 111.704 95.4391 112.027 95.1638 112.442C94.8885 112.856 94.7416 113.342 94.7416 113.839C94.7415 114.174 94.8081 114.506 94.9375 114.815C95.0668 115.124 95.2563 115.404 95.4949 115.638C95.7335 115.873 96.0165 116.058 96.3273 116.183C96.6381 116.307 96.9705 116.368 97.3052 116.363Z" fill="#0077B6"/>
<path d="M97.3052 88.5338C97.8021 88.5256 98.2855 88.3706 98.6946 88.0883C99.1038 87.8061 99.4205 87.4092 99.605 86.9474C99.7895 86.4856 99.8335 85.9795 99.7315 85.4928C99.6295 85.0061 99.3861 84.5603 99.0318 84.2116C98.6776 83.8628 98.2282 83.6266 97.7402 83.5326C97.2522 83.4386 96.7473 83.4909 96.2889 83.6831C95.8305 83.8753 95.4391 84.1987 95.1638 84.6127C94.8885 85.0268 94.7416 85.513 94.7416 86.0103C94.7415 86.3452 94.8081 86.6768 94.9375 86.9858C95.0668 87.2947 95.2563 87.5748 95.4949 87.8097C95.7335 88.0445 96.0165 88.2295 96.3273 88.3539C96.6381 88.4782 96.9705 88.5394 97.3052 88.5338Z" fill="#0077B6"/>
<path d="M97.3052 60.705C97.8021 60.6967 98.2855 60.5418 98.6946 60.2595C99.1038 59.9773 99.4205 59.5803 99.605 59.1185C99.7895 58.6567 99.8335 58.1507 99.7315 57.664C99.6295 57.1772 99.3861 56.7315 99.0318 56.3828C98.6776 56.034 98.2282 55.7978 97.7402 55.7037C97.2522 55.6097 96.7473 55.6621 96.2889 55.8542C95.8305 56.0464 95.4391 56.3698 95.1638 56.7839C94.8885 57.1979 94.7416 57.6841 94.7416 58.1814C94.7415 58.5164 94.8081 58.848 94.9375 59.1569C95.0668 59.4658 95.2563 59.7459 95.4949 59.9808C95.7335 60.2157 96.0165 60.4007 96.3273 60.525C96.6381 60.6494 96.9705 60.7105 97.3052 60.705Z" fill="#0077B6"/>
<path d="M97.3052 32.8761C97.8021 32.8679 98.2855 32.7129 98.6946 32.4306C99.1038 32.1484 99.4205 31.7514 99.605 31.2897C99.7895 30.8279 99.8335 30.3218 99.7315 29.8351C99.6295 29.3484 99.3861 28.9026 99.0318 28.5539C98.6776 28.2051 98.2282 27.9689 97.7402 27.8749C97.2522 27.7808 96.7473 27.8332 96.2889 28.0254C95.8305 28.2175 95.4391 28.541 95.1638 28.955C94.8885 29.369 94.7416 29.8553 94.7416 30.3526C94.7415 30.6875 94.8081 31.0191 94.9375 31.328C95.0668 31.637 95.2563 31.9171 95.4949 32.1519C95.7335 32.3868 96.0165 32.5718 96.3273 32.6962C96.6381 32.8205 96.9705 32.8817 97.3052 32.8761Z" fill="#0077B6"/>
<path d="M97.3052 5.0475C97.8021 5.03926 98.2855 4.88428 98.6946 4.60202C99.1038 4.31977 99.4205 3.92283 99.605 3.46105C99.7895 2.99926 99.8335 2.49324 99.7315 2.00651C99.6295 1.51977 99.3861 1.07404 99.0318 0.725291C98.6776 0.376538 98.2282 0.140312 97.7402 0.0462826C97.2522 -0.0477472 96.7473 0.00460711 96.2889 0.196776C95.8305 0.388946 95.4391 0.712354 95.1638 1.12639C94.8885 1.54044 94.7416 2.02665 94.7416 2.52396C94.7415 2.85891 94.8081 3.19052 94.9375 3.49945C95.0668 3.80838 95.2563 4.08844 95.4949 4.32333C95.7335 4.55822 96.0165 4.74321 96.3273 4.86755C96.6381 4.99188 96.9705 5.05306 97.3052 5.0475Z" fill="#0077B6"/>
<path d="M120.991 144.192C121.487 144.183 121.971 144.028 122.38 143.746C122.789 143.464 123.106 143.067 123.29 142.605C123.475 142.143 123.519 141.637 123.417 141.151C123.315 140.664 123.071 140.218 122.717 139.869C122.363 139.521 121.914 139.284 121.426 139.19C120.938 139.096 120.433 139.149 119.974 139.341C119.516 139.533 119.125 139.856 118.849 140.27C118.574 140.684 118.427 141.171 118.427 141.668C118.427 142.003 118.493 142.335 118.623 142.643C118.752 142.952 118.942 143.232 119.18 143.467C119.419 143.702 119.702 143.887 120.013 144.012C120.323 144.136 120.656 144.197 120.991 144.192Z" fill="#0077B6"/>
<path d="M120.991 116.363C121.487 116.354 121.971 116.199 122.38 115.917C122.789 115.635 123.106 115.238 123.29 114.776C123.475 114.314 123.519 113.808 123.417 113.322C123.315 112.835 123.071 112.389 122.717 112.04C122.363 111.692 121.914 111.455 121.426 111.361C120.938 111.267 120.433 111.32 119.974 111.512C119.516 111.704 119.125 112.028 118.849 112.442C118.574 112.856 118.427 113.342 118.427 113.839C118.427 114.174 118.493 114.506 118.623 114.815C118.752 115.124 118.942 115.404 119.18 115.638C119.419 115.873 119.702 116.058 120.013 116.183C120.323 116.307 120.656 116.368 120.991 116.363Z" fill="#0077B6"/>
<path d="M120.991 88.5338C121.487 88.5256 121.971 88.3706 122.38 88.0883C122.789 87.8061 123.106 87.4092 123.29 86.9474C123.475 86.4856 123.519 85.9795 123.417 85.4928C123.315 85.0061 123.071 84.5603 122.717 84.2116C122.363 83.8628 121.914 83.6266 121.426 83.5326C120.938 83.4386 120.433 83.4909 119.974 83.6831C119.516 83.8753 119.125 84.1987 118.849 84.6127C118.574 85.0267 118.427 85.513 118.427 86.0103C118.427 86.3452 118.493 86.6768 118.623 86.9858C118.752 87.2947 118.942 87.5748 119.18 87.8097C119.419 88.0445 119.702 88.2295 120.013 88.3539C120.323 88.4782 120.656 88.5394 120.991 88.5338Z" fill="#0077B6"/>
<path d="M120.991 60.705C121.487 60.6967 121.971 60.5418 122.38 60.2595C122.789 59.9773 123.106 59.5803 123.29 59.1185C123.475 58.6567 123.519 58.1507 123.417 57.664C123.315 57.1772 123.071 56.7315 122.717 56.3828C122.363 56.034 121.914 55.7978 121.426 55.7037C120.938 55.6097 120.433 55.6621 119.974 55.8542C119.516 56.0464 119.125 56.3698 118.849 56.7839C118.574 57.1979 118.427 57.6841 118.427 58.1814C118.427 58.5164 118.493 58.848 118.623 59.1569C118.752 59.4658 118.942 59.7459 119.18 59.9808C119.419 60.2157 119.702 60.4007 120.013 60.525C120.323 60.6494 120.656 60.7105 120.991 60.705Z" fill="#0077B6"/>
<path d="M120.991 32.8761C121.487 32.8679 121.971 32.7129 122.38 32.4306C122.789 32.1484 123.106 31.7514 123.29 31.2897C123.475 30.8279 123.519 30.3218 123.417 29.8351C123.315 29.3484 123.071 28.9026 122.717 28.5539C122.363 28.2051 121.914 27.9689 121.426 27.8749C120.938 27.7808 120.433 27.8332 119.974 28.0254C119.516 28.2175 119.125 28.541 118.849 28.955C118.574 29.369 118.427 29.8553 118.427 30.3526C118.427 30.6875 118.493 31.0191 118.623 31.328C118.752 31.637 118.942 31.9171 119.18 32.1519C119.419 32.3868 119.702 32.5718 120.013 32.6962C120.323 32.8205 120.656 32.8817 120.991 32.8761Z" fill="#0077B6"/>
<path d="M120.991 5.0475C121.487 5.03926 121.971 4.88428 122.38 4.60202C122.789 4.31977 123.106 3.92283 123.29 3.46105C123.475 2.99926 123.519 2.49324 123.417 2.00651C123.315 1.51977 123.071 1.07404 122.717 0.725291C122.363 0.376538 121.914 0.140312 121.426 0.0462826C120.938 -0.0477472 120.433 0.00460711 119.974 0.196776C119.516 0.388946 119.125 0.712354 118.849 1.12639C118.574 1.54044 118.427 2.02665 118.427 2.52396C118.427 2.85891 118.493 3.19052 118.623 3.49945C118.752 3.80838 118.942 4.08844 119.18 4.32333C119.419 4.55822 119.702 4.74321 120.013 4.86755C120.323 4.99188 120.656 5.05306 120.991 5.0475Z" fill="#0077B6"/>
</g>
<defs>
<clipPath id="clip0_1_54">
<rect width="145" height="124" fill="white" transform="translate(0 145) rotate(-90)"/>
</clipPath>
</defs>
</svg>
