<svg width="24" height="24" viewBox="0 0 24 24" fill="none" xmlns="http://www.w3.org/2000/svg">
<circle cx="12" cy="12" r="12" transform="rotate(-180 12 12)" fill="#223044"/>
<g clip-path="url(#clip0_308_37)">
<path d="M14.778 11.6098L10.3278 7.15976C10.2249 7.05675 10.0875 7 9.94101 7C9.79451 7 9.65711 7.05675 9.55418 7.15975L9.22646 7.48739C9.01321 7.70089 9.01321 8.04788 9.22646 8.26105L12.9633 11.9979L9.22231 15.739C9.11939 15.842 9.06256 15.9793 9.06256 16.1257C9.06256 16.2723 9.11939 16.4096 9.22231 16.5127L9.55004 16.8402C9.65304 16.9433 9.79036 17 9.93686 17C10.0834 17 10.2208 16.9433 10.3237 16.8402L14.778 12.3861C14.8811 12.2828 14.9378 12.1448 14.9375 11.9982C14.9378 11.8509 14.8811 11.7131 14.778 11.6098Z" fill="white"/>
</g>
<defs>
<clipPath id="clip0_308_37">
<rect width="10" height="10" fill="white" transform="translate(7 7)"/>
</clipPath>
</defs>
</svg>
