<svg width="99" height="87" viewBox="0 0 99 87" fill="none" xmlns="http://www.w3.org/2000/svg">
<g clip-path="url(#clip0_1_276)">
<path d="M24.3958 26.6388C24.3958 41.2206 36.2162 53.041 50.798 53.041C65.3797 53.041 77.2002 41.2206 77.2002 26.6388C77.2002 12.057 65.3797 0.236572 50.798 0.236572C36.2233 0.252575 24.4126 12.0641 24.3958 26.6388ZM50.798 3.87802C63.3687 3.87802 73.5587 14.068 73.5587 26.6388C73.5587 39.2096 63.3687 49.3996 50.798 49.3996C38.2272 49.3996 28.0372 39.2096 28.0372 26.6388C28.0514 14.0742 38.2334 3.89224 50.798 3.87802Z" fill="#0077B6"/>
<path d="M86.1758 57.5298L71.9132 64.2686C69.944 60.6058 66.1665 58.2748 62.0094 58.1574L48.843 57.7956C46.7583 57.736 44.7126 57.2079 42.859 56.2504L41.5192 55.5561C34.6595 51.9805 26.4832 51.9894 19.6306 55.5792L19.7142 52.5441C19.7417 51.5386 18.9496 50.7012 17.9441 50.6736L3.50636 50.2762C2.50088 50.2487 1.66431 51.0408 1.63675 52.0463L0.764614 83.7293C0.737054 84.7348 1.52917 85.5722 2.53466 85.5998L16.9724 85.9972H17.0222C18.009 85.9972 18.8162 85.2122 18.8429 84.2262L18.8847 82.7105L22.6355 80.7022C24.1077 79.91 25.8289 79.7216 27.4371 80.1767L49.8352 86.463C49.8743 86.4746 49.9134 86.4835 49.9534 86.4924C51.5723 86.8311 53.2223 87.0009 54.8759 87C58.3787 87.0018 61.8405 86.247 65.0241 84.7854C65.1024 84.7499 65.1779 84.7081 65.2499 84.661L97.7251 63.6551C98.5341 63.1315 98.7955 62.0691 98.3216 61.2299C95.9106 56.9519 90.5631 55.3223 86.1758 57.5298ZM4.45495 82.0099L5.22662 53.9665L16.0238 54.2635L15.2521 82.3077L4.45495 82.0099ZM63.3839 81.5334C59.4286 83.3186 55.0111 83.8111 50.7597 82.9425L28.4221 76.6722C25.908 75.9619 23.2169 76.2561 20.917 77.4928L19.0003 78.5196L19.5132 59.8741C25.587 55.8344 33.3767 55.4192 39.8452 58.7895L41.185 59.4838C43.5266 60.6929 46.1093 61.3597 48.7434 61.4361L61.9108 61.798C65.6091 61.9046 68.75 64.5379 69.5004 68.1616L49.8876 67.6202C48.8821 67.5926 48.0456 68.3856 48.0171 69.3902C47.9895 70.3957 48.7826 71.2332 49.7872 71.2607L71.4313 71.8564H71.482C72.4679 71.8555 73.2743 71.0705 73.3009 70.0854C73.3232 69.2942 73.2645 68.5021 73.1249 67.7233L87.7538 60.8111C87.768 60.8049 87.7822 60.7978 87.7965 60.7907C89.8714 59.7408 92.3803 60.0919 94.0872 61.6717L63.3839 81.5334Z" fill="#0077B6"/>
<g clip-path="url(#clip1_1_276)">
<path d="M42.4321 33.6588H45.773V36.5228C45.773 36.6621 45.8176 36.7762 45.9073 36.8654C45.9968 36.9551 46.1111 37 46.2504 37H48.7411C48.8703 37 48.9822 36.9551 49.0767 36.8654C49.1711 36.7762 49.2182 36.6621 49.2182 36.5228V33.6588H56.7502C56.8892 33.6588 57.0036 33.6145 57.0932 33.5247C57.183 33.4351 57.2275 33.3209 57.2275 33.1816V31.2724C57.2275 31.1339 57.183 31.019 57.0932 30.9298C57.0038 30.8401 56.8892 30.7952 56.7502 30.7952H49.218V29.0352H54.289C56.2775 29.0352 57.9005 28.4293 59.1587 27.2157C60.4163 26.0034 61.0455 24.4374 61.0455 22.5176C61.0455 20.5991 60.4163 19.033 59.1587 17.8195C57.9008 16.6072 56.2775 16 54.289 16H46.2502C46.1108 16 45.9967 16.0448 45.9071 16.134C45.8176 16.2237 45.7728 16.3386 45.7728 16.4772V25.8588H42.4321C42.2927 25.8588 42.1786 25.9059 42.0889 26.0003C41.9995 26.0948 41.9547 26.2067 41.9547 26.3359V28.558C41.9547 28.6973 41.9992 28.8115 42.0889 28.9011C42.1786 28.9909 42.2925 29.0352 42.4321 29.0352H45.773V30.7952H42.4321C42.2927 30.7952 42.1786 30.8401 42.0889 30.9298C41.9995 31.019 41.9547 31.1336 41.9547 31.2724V33.1815C41.9547 33.3209 41.9992 33.435 42.0889 33.5247C42.1786 33.6145 42.2927 33.6588 42.4321 33.6588ZM49.218 19.1772H53.9907C55.0446 19.1772 55.8946 19.4853 56.5411 20.1018C57.1873 20.7183 57.5105 21.5239 57.5105 22.5178C57.5105 23.5123 57.1873 24.3182 56.5411 24.9339C55.8946 25.5509 55.0445 25.8591 53.9907 25.8591H49.218V19.1772Z" fill="#0077B6"/>
</g>
</g>
<defs>
<clipPath id="clip0_1_276">
<rect width="99" height="87" fill="white"/>
</clipPath>
<clipPath id="clip1_1_276">
<rect width="21" height="21" fill="white" transform="translate(41 16)"/>
</clipPath>
</defs>
</svg>
