<svg width="88" height="88" viewBox="0 0 88 88" fill="none" xmlns="http://www.w3.org/2000/svg">
<g clip-path="url(#clip0_1_322)">
<path d="M87.4916 61.1637L83.2963 57.0026C82.622 56.3339 81.5337 56.3385 80.8651 57.0126C80.1964 57.6867 80.201 58.7752 80.8751 59.4438L85.0702 63.6049C85.4054 63.9374 85.8431 64.1035 86.2807 64.1035C86.723 64.1035 87.1652 63.9338 87.5012 63.5949C88.1702 62.9208 88.1657 61.8323 87.4916 61.1637Z" fill="#0077B6"/>
<path d="M79.0216 52.7452C78.3503 52.0739 77.2621 52.0739 76.5904 52.7452L76.5875 52.7481C75.9162 53.4195 75.9177 54.5066 76.5891 55.1779C76.9242 55.5133 77.364 55.6808 77.8037 55.6808C78.2444 55.6808 78.6854 55.5126 79.0214 55.1765C79.6928 54.5052 79.6928 53.4167 79.0216 52.7452Z" fill="#0077B6"/>
<path d="M64.366 60.6718L81.0427 43.9953C83.5684 41.4694 83.5684 37.3595 81.0425 34.8337C80.1518 33.943 79.064 33.3679 77.9183 33.1055C78.3112 32.2609 78.5192 31.334 78.5192 30.3747C78.5192 28.6443 77.8453 27.0175 76.6219 25.7941C75.6623 24.8343 74.4542 24.2145 73.1429 23.9913C73.8811 21.7421 73.3593 19.1662 71.5741 17.3811C70.5925 16.3997 69.3717 15.8016 68.0975 15.583C68.311 14.9352 68.4236 14.2511 68.4236 13.5492C68.4236 11.8188 67.7497 10.192 66.5263 8.96855C65.3027 7.74514 63.6759 7.07122 61.9456 7.07122C60.8468 7.07122 59.7903 7.34381 58.8517 7.85566L58.6858 7.67742C56.5302 5.36089 53.4789 4.03247 50.3148 4.03247H36.8158C35.8665 4.03247 35.0967 4.8023 35.0967 5.75156V8.00588C35.0967 8.90805 35.2493 9.78633 35.5412 10.6122C34.7636 10.2892 33.9223 10.1196 33.055 10.1196C31.3246 10.1196 29.6978 10.7935 28.4742 12.0169C26.6881 13.803 26.1668 16.3808 26.9067 18.6307C25.6315 18.8488 24.409 19.4473 23.4266 20.4295C22.2031 21.6531 21.5292 23.2799 21.5292 25.0102C21.5292 25.7107 21.6415 26.3937 21.8541 27.0402C20.5444 27.2641 19.3375 27.8836 18.3788 28.8425C16.4061 30.8151 15.9742 33.7541 17.083 36.1499C15.9089 36.4182 14.8306 37.0094 13.9578 37.882C11.4321 40.4077 11.4321 44.5176 13.9578 47.0435L17.3874 50.4729L0.503416 67.3565C-0.167927 68.0279 -0.167927 69.1164 0.503416 69.7879C0.839088 70.1234 1.27909 70.2915 1.71892 70.2915C2.15874 70.2915 2.59874 70.1236 2.93442 69.7879L19.9813 52.741C20.9464 53.2917 22.0416 53.5863 23.183 53.5863C24.9133 53.5863 26.5401 52.9123 27.7636 51.6888C29.0929 50.3596 29.7216 48.5916 29.6517 46.8467C29.7388 46.8503 29.826 46.8529 29.9131 46.8529C31.5717 46.8527 33.2312 46.2212 34.4938 44.9587C35.7172 43.7351 36.3911 42.1083 36.3911 40.378C36.3911 40.2905 36.3882 40.2036 36.3847 40.1166C36.4708 40.12 36.5569 40.1228 36.6432 40.1228C38.302 40.1228 39.9611 39.4913 41.2239 38.2285C42.4473 37.005 43.1212 35.3782 43.1212 33.6479C43.1212 33.5604 43.1183 33.4734 43.1148 33.3865C43.2009 33.3899 43.2871 33.3927 43.3733 33.3927C45.0323 33.3927 46.6912 32.7612 47.954 31.4984C50.3272 29.1252 50.4701 25.3537 48.3837 22.8115L59.7951 11.4001C60.3694 10.8257 61.1325 10.5096 61.9446 10.5096C62.7567 10.5096 63.52 10.8257 64.0942 11.4001C64.6685 11.9743 64.9846 12.7374 64.9846 13.5495C64.9846 14.3615 64.6685 15.1249 64.0941 15.699L62.4116 17.3815L56.3069 23.4861C55.6356 24.1575 55.6356 25.246 56.3069 25.9175C56.6426 26.253 57.0826 26.4211 57.5224 26.4211C57.9623 26.4211 58.4023 26.2532 58.7379 25.9175L64.8426 19.8128C66.0277 18.6276 67.9563 18.6274 69.1417 19.8127C70.3269 20.9981 70.3269 22.9265 69.1417 24.1119L67.459 25.7946L63.037 30.2166C62.3657 30.8879 62.3657 31.9764 63.037 32.6479C63.3727 32.9834 63.8127 33.1515 64.2525 33.1515C64.6924 33.1515 65.1324 32.9836 65.468 32.6479L69.89 28.2259C70.4643 27.6515 71.2276 27.3355 72.0395 27.3355C72.8516 27.3355 73.6149 27.6515 74.1891 28.2259C74.7634 28.8002 75.0795 29.5633 75.0795 30.3754C75.0795 31.1873 74.7634 31.9508 74.189 32.5249L71.8795 34.8344L69.767 36.9469C69.0956 37.6182 69.0956 38.7067 69.767 39.3782C70.1026 39.7137 70.5426 39.8818 70.9825 39.8818C71.4223 39.8818 71.8623 39.7139 72.198 39.3782L74.312 37.2642C75.4975 36.0808 77.4249 36.081 78.6096 37.2657C79.795 38.451 79.795 40.3796 78.6096 41.565L61.9329 58.2415C57.7453 62.4292 52.1799 64.8535 46.2617 65.0684C45.8267 65.0842 45.4135 65.2645 45.1062 65.5732L29.7007 81.0357C29.0305 81.7083 29.0324 82.7968 29.7051 83.4669C30.0405 83.801 30.4794 83.9683 30.9184 83.9683C31.3593 83.9683 31.8005 83.7997 32.1361 83.4624L43.4674 72.0895C46.3456 73.9359 49.7305 74.8139 53.1723 74.5863L62.0407 83.4549C62.3763 83.7904 62.8163 83.9585 63.2562 83.9585C63.6962 83.9585 64.136 83.7905 64.4717 83.4549C65.143 82.7835 65.143 81.695 64.4717 81.0235L55.0426 71.5934C54.6856 71.2366 54.1896 71.0543 53.6865 71.0955L53.1415 71.1402C50.6258 71.3465 48.1391 70.7954 45.968 69.5787L47.0728 68.4699C53.6068 68.0669 59.7241 65.3138 64.366 60.6718ZM25.3326 49.2578C24.7584 49.8322 23.9949 50.1482 23.1832 50.1482C22.3711 50.1482 21.6078 49.8322 21.0337 49.2578L16.3886 44.6128C15.2034 43.4276 15.2034 41.499 16.3886 40.3136C16.9629 39.7392 17.7263 39.4231 18.5383 39.4231C19.3502 39.4231 20.1137 39.7392 20.6877 40.3136L25.3328 44.9585C26.5179 46.1437 26.5179 48.0723 25.3326 49.2578ZM32.0631 42.5273C30.8777 43.7126 28.9487 43.7126 27.7638 42.5273L23.1187 37.8822L20.8091 35.5726C19.6238 34.3873 19.6238 32.4587 20.8091 31.2735C21.3833 30.699 22.1468 30.383 22.9585 30.383C23.7706 30.383 24.5339 30.699 25.108 31.2735L32.0626 38.228C32.0626 38.228 32.0626 38.228 32.0628 38.228C32.6372 38.8024 32.9532 39.5657 32.9532 40.3777C32.9532 41.1896 32.6372 41.9531 32.0631 42.5273ZM38.7932 35.797C37.6078 36.9821 35.679 36.9823 34.4939 35.797L25.8567 27.1598C25.2825 26.5856 24.9664 25.8224 24.9664 25.0103C24.9664 24.1984 25.2825 23.4349 25.8569 22.8609C26.4495 22.2682 27.2281 21.9719 28.0063 21.9719C28.7842 21.9719 29.562 22.2679 30.1544 22.8595L34.0911 26.7961L38.7929 31.4979H38.793C39.3671 32.0722 39.6832 32.8353 39.6832 33.6474C39.6835 34.4595 39.3674 35.223 38.7932 35.797ZM45.5235 29.0667C44.3382 30.252 42.4096 30.252 41.2244 29.0667L32.5872 20.4295C32.5863 20.4287 32.5853 20.4278 32.5842 20.4268L30.9045 18.747C29.7192 17.5616 29.7192 15.6332 30.9045 14.4478C31.4971 13.855 32.2757 13.5586 33.0541 13.5586C33.8326 13.5586 34.6111 13.855 35.2036 14.4478L45.5231 24.7673C46.0975 25.3415 46.4136 26.1048 46.4136 26.9168C46.4138 27.729 46.0979 28.4927 45.5235 29.0667ZM45.9755 20.3575L41.2538 15.6358C41.7892 15.75 42.3397 15.8107 42.9 15.8105C42.9125 15.8105 42.9253 15.8105 42.938 15.8105L47.6556 15.7884C48.6049 15.7839 49.3711 15.0106 49.3666 14.0612C49.3621 13.1145 48.5933 12.3502 47.6477 12.3502C47.6449 12.3502 47.6422 12.3502 47.6394 12.3502L42.9218 12.3724C42.9146 12.3724 42.9077 12.3724 42.9005 12.3724C41.7381 12.3724 40.6448 11.9212 39.8205 11.1008C38.991 10.2751 38.5344 9.17617 38.5344 8.0057V7.47049H50.3143C52.5272 7.47049 54.661 8.39947 56.1687 10.0196L56.2387 10.0947L45.9755 20.3575Z" fill="#0077B6"/>
</g>
<defs>
<clipPath id="clip0_1_322">
<rect width="88" height="88" fill="white"/>
</clipPath>
</defs>
</svg>
