<svg width="24" height="24" viewBox="0 0 24 24" fill="none" xmlns="http://www.w3.org/2000/svg">
<circle cx="12" cy="12" r="12" fill="#223044"/>
<g clip-path="url(#clip0_308_36)">
<path d="M9.22204 12.3902L13.6722 16.8402C13.7751 16.9433 13.9125 17 14.059 17C14.2055 17 14.3429 16.9433 14.4458 16.8402L14.7735 16.5126C14.9868 16.2991 14.9868 15.9521 14.7735 15.739L11.0367 12.0021L14.7777 8.26105C14.8806 8.15804 14.9374 8.02072 14.9374 7.8743C14.9374 7.72772 14.8806 7.5904 14.7777 7.48731L14.45 7.15975C14.347 7.05675 14.2096 7 14.0631 7C13.9166 7 13.7792 7.05675 13.6763 7.15975L9.22204 11.6139C9.11887 11.7172 9.0622 11.8552 9.06253 12.0018C9.0622 12.1491 9.11887 12.2869 9.22204 12.3902Z" fill="white"/>
</g>
<defs>
<clipPath id="clip0_308_36">
<rect width="10" height="10" fill="white" transform="translate(17 17) rotate(-180)"/>
</clipPath>
</defs>
</svg>
