<svg width="70" height="92" viewBox="0 0 70 92" fill="none" xmlns="http://www.w3.org/2000/svg">
<path d="M30.8088 31.2042H45.1257C45.9368 31.2042 46.5941 30.5469 46.5941 29.7358C46.5941 28.9247 45.9366 28.2675 45.1257 28.2675H30.8088C29.9979 28.2675 29.3405 28.9247 29.3405 29.7358C29.3405 30.547 29.9979 31.2042 30.8088 31.2042Z" fill="#0077B6" stroke="#0077B6" stroke-width="0.3"/>
<path d="M30.8088 24.4371H59.4427C60.2537 24.4371 60.9111 23.7799 60.9111 22.9688C60.9111 22.1576 60.2537 21.5004 59.4427 21.5004H30.8088C29.9979 21.5004 29.3405 22.1576 29.3405 22.9688C29.3405 23.7799 29.9979 24.4371 30.8088 24.4371Z" fill="#0077B6" stroke="#0077B6" stroke-width="0.3"/>
<path d="M30.8088 53.2976H45.1257C45.9368 53.2976 46.5941 52.6403 46.5941 51.8292C46.5941 51.0181 45.9366 50.3609 45.1257 50.3609H30.8088C29.9979 50.3609 29.3405 51.0181 29.3405 51.8292C29.3405 52.6403 29.9979 53.2976 30.8088 53.2976Z" fill="#0077B6" stroke="#0077B6" stroke-width="0.3"/>
<path d="M30.8088 46.5304H59.4427C60.2537 46.5304 60.9111 45.8731 60.9111 45.062C60.9111 44.2509 60.2537 43.5937 59.4427 43.5937H30.8088C29.9979 43.5937 29.3405 44.2509 29.3405 45.062C29.3405 45.8731 29.9979 46.5304 30.8088 46.5304Z" fill="#0077B6" stroke="#0077B6" stroke-width="0.3"/>
<path d="M30.8088 75.391H45.1257C45.9368 75.391 46.5941 74.7337 46.5941 73.9226C46.5941 73.1115 45.9366 72.4542 45.1257 72.4542H30.8088C29.9979 72.4542 29.3405 73.1115 29.3405 73.9226C29.3405 74.7337 29.9979 75.391 30.8088 75.391Z" fill="#0077B6" stroke="#0077B6" stroke-width="0.3"/>
<path d="M30.8088 68.6238H59.4427C60.2537 68.6238 60.9111 67.9665 60.9111 67.1554C60.9111 66.3443 60.2537 65.687 59.4427 65.687H30.8088C29.9979 65.687 29.3405 66.3443 29.3405 67.1554C29.3405 67.9665 29.9979 68.6238 30.8088 68.6238Z" fill="#0077B6" stroke="#0077B6" stroke-width="0.3"/>
<path d="M19.5201 4.9301V4.93012V9.48918C19.5201 11.7391 21.3504 13.5691 23.6002 13.5691H46.3997C48.6496 13.5691 50.4797 11.7391 50.4797 9.48918V4.93012C50.4797 2.68024 48.6495 0.85 46.3996 0.85H23.6002C21.3503 0.85 19.5203 2.68025 19.5201 4.9301ZM22.4568 4.93012C22.4568 4.29982 22.9699 3.78672 23.6002 3.78672H46.3996C47.0299 3.78672 47.543 4.29965 47.543 4.93012V9.48918C47.543 10.1193 47.0299 10.6324 46.3996 10.6324H23.6002C22.9699 10.6324 22.4568 10.1195 22.4568 9.48918V4.93012Z" fill="#0077B6" stroke="#0077B6" stroke-width="0.3"/>
<path d="M12.7784 32.9714H18.6378C20.6723 32.9714 22.3273 31.3164 22.3273 29.282V23.4227C22.3273 21.3882 20.6723 19.7332 18.6378 19.7332H12.7784C10.7439 19.7332 9.08891 21.3882 9.08891 23.4227V29.2818C9.08891 31.3164 10.7439 32.9714 12.7784 32.9714ZM12.0256 23.4227C12.0256 23.0077 12.3635 22.6699 12.7784 22.6699H18.6378C19.0527 22.6699 19.3906 23.0077 19.3906 23.4227V29.282C19.3906 29.697 19.0527 30.0348 18.6378 30.0348H12.7784C12.3635 30.0348 12.0256 29.697 12.0256 29.282V23.4227Z" fill="#0077B6" stroke="#0077B6" stroke-width="0.3"/>
<path d="M12.7784 55.0648H18.6378C20.6723 55.0648 22.3273 53.4098 22.3273 51.3753V45.516C22.3273 43.4814 20.6723 41.8264 18.6378 41.8264H12.7784C10.7439 41.8264 9.08891 43.4814 9.08891 45.516V51.3753C9.08891 53.4098 10.7439 55.0648 12.7784 55.0648ZM12.0256 45.516C12.0256 45.101 12.3635 44.7632 12.7784 44.7632H18.6378C19.0527 44.7632 19.3906 45.101 19.3906 45.516V51.3753C19.3906 51.7903 19.0527 52.1281 18.6378 52.1281H12.7784C12.3635 52.1281 12.0256 51.7903 12.0256 51.3753V45.516Z" fill="#0077B6" stroke="#0077B6" stroke-width="0.3"/>
<path d="M12.7784 77.1581H18.6378C20.6723 77.1581 22.3273 75.5031 22.3273 73.4684V67.6093C22.3273 65.5746 20.6723 63.9196 18.6378 63.9196H12.7784C10.7439 63.9196 9.08891 65.5746 9.08891 67.6093V73.4684C9.08891 75.5031 10.7439 77.1581 12.7784 77.1581ZM12.0256 67.6095C12.0256 67.1945 12.3635 66.8565 12.7784 66.8565H18.6378C19.0527 66.8565 19.3906 67.1945 19.3906 67.6095V73.4686C19.3906 73.8836 19.0527 74.2216 18.6378 74.2216H12.7784C12.3635 74.2216 12.0256 73.8836 12.0256 73.4686V67.6095Z" fill="#0077B6" stroke="#0077B6" stroke-width="0.3"/>
<path d="M6.95392 91.1501H63.0461C66.278 91.1501 68.9074 88.5209 68.9074 85.2886V11.6025C68.9074 8.37052 66.2782 5.74136 63.0461 5.74136H55.1456C54.3347 5.74136 53.6772 6.3986 53.6772 7.20972C53.6772 8.02083 54.3347 8.67808 55.1456 8.67808H63.0461C64.6585 8.67808 65.9707 9.98994 65.9707 11.6025V85.2886C65.9707 86.901 64.6586 88.2132 63.0461 88.2132H6.95392C5.34153 88.2132 4.02933 86.9012 4.02933 85.2886V11.6025C4.02933 9.9901 5.34135 8.67808 6.95392 8.67808H14.8544C15.6653 8.67808 16.3228 8.02083 16.3228 7.20972C16.3228 6.3986 15.6653 5.74136 14.8544 5.74136H6.95392C3.72197 5.74136 1.09261 8.37052 1.09261 11.6025V85.2888C1.09261 88.5209 3.72178 91.1501 6.95392 91.1501Z" fill="#0077B6" stroke="#0077B6" stroke-width="0.3"/>
</svg>
